<?xml version="1.0" standalone="no"?>
<!DOCTYPE svg PUBLIC "-//W3C//DTD SVG 20010904//EN"
 "http://www.w3.org/TR/2001/REC-SVG-20010904/DTD/svg10.dtd">
<svg version="1.0" xmlns="http://www.w3.org/2000/svg"
 width="256.000000pt" height="256.000000pt" viewBox="0 0 256.000000 256.000000"
 preserveAspectRatio="xMidYMid meet">

<g transform="translate(0.000000,256.000000) scale(0.100000,-0.100000)"
fill="#000000" stroke="none">
<path d="M1010 2053 c-327 -232 -424 -308 -557 -437 -87 -83 -107 -116 -83
-131 6 -4 -18 -38 -55 -78 -35 -40 -65 -78 -65 -84 0 -7 22 -27 49 -45 l48
-33 -42 -49 c-52 -58 -98 -140 -93 -164 3 -9 -11 -38 -29 -63 -32 -45 -32 -47
-17 -78 9 -17 26 -38 37 -46 20 -12 384 -63 585 -81 65 -6 72 -9 72 -29 0 -66
135 -111 194 -64 l26 21 378 -116 c207 -64 389 -116 403 -116 14 0 35 10 46
23 17 18 127 172 408 572 125 178 122 246 -15 299 -38 15 -70 31 -70 36 0 4
23 36 50 70 69 87 67 95 -25 109 -42 6 -84 11 -93 11 -9 0 -23 4 -31 9 -11 7
-3 22 37 68 56 64 65 93 30 93 -18 0 -565 -148 -609 -165 -10 -4 -93 82 -247
255 -137 153 -240 260 -250 260 -9 0 -46 -21 -82 -47z m241 -185 c84 -95 182
-204 216 -242 35 -38 63 -73 63 -78 0 -10 -164 -214 -393 -490 l-139 -168 -62
52 c-178 151 -516 520 -516 564 0 16 137 145 250 236 121 97 401 298 416 298
7 0 81 -78 165 -172z m847 -217 c-234 -289 -309 -385 -377 -481 -44 -63 -86
-123 -93 -133 -9 -13 -48 -25 -135 -42 -127 -25 -316 -73 -391 -99 -29 -11
-40 -12 -35 -4 4 7 79 100 168 208 89 107 205 249 258 316 l96 120 208 58
c114 32 228 64 253 71 68 20 74 19 48 -14z m136 -129 c25 -7 20 -15 -237 -347
l-262 -340 -55 -4 c-67 -4 -468 19 -494 29 -26 9 89 41 300 83 l162 32 38 60
c51 78 239 328 322 429 l66 78 66 -6 c37 -4 79 -10 94 -14z m-1757 -182 c33
-41 95 -113 139 -160 43 -46 68 -78 54 -69 -14 8 -98 59 -187 113 -90 53 -163
101 -163 105 0 16 83 102 90 94 5 -4 35 -42 67 -83z m1836 -50 c11 -10 -166
-304 -287 -477 -142 -203 -184 -255 -204 -249 -9 2 -187 52 -395 111 -312 88
-383 105 -406 97 -41 -14 -87 8 -96 47 -7 33 -15 37 -95 45 -131 14 -576 68
-588 72 -10 3 -9 10 5 34 9 16 23 30 30 30 7 0 156 -25 330 -56 l318 -55 32
-34 33 -34 152 -11 c84 -6 214 -15 288 -20 74 -6 178 -10 230 -10 l95 0 126
163 c69 89 167 217 218 284 l93 121 56 -25 c32 -13 61 -28 65 -33z m-1690
-209 c103 -63 186 -115 184 -118 -3 -2 -110 14 -238 37 -129 23 -249 44 -266
47 -18 3 -33 9 -33 13 0 11 58 91 93 127 27 29 33 31 51 20 12 -7 106 -64 209
-126z"/>
<path d="M940 1830 c0 -12 12 -25 34 -35 55 -26 87 -69 115 -152 25 -74 29
-79 86 -118 37 -26 61 -50 65 -65 3 -14 13 -26 22 -28 21 -4 31 28 19 61 -10
25 -22 36 -90 80 -28 18 -39 35 -57 90 -25 79 -64 133 -120 164 -49 28 -74 29
-74 3z"/>
<path d="M683 1593 c-29 -10 -9 -35 50 -63 87 -42 103 -57 140 -130 25 -51 41
-70 74 -88 70 -38 91 0 24 42 -25 16 -43 37 -50 59 -15 46 -53 95 -95 123 -43
30 -127 63 -143 57z"/>
<path d="M1760 1448 c-27 -16 -43 -19 -80 -14 -82 12 -85 12 -85 -8 0 -42 142
-60 183 -23 11 10 33 15 60 14 44 -1 71 18 52 37 -19 19 -95 16 -130 -6z"/>
<path d="M1540 1220 c-8 -5 -41 -10 -73 -10 -55 0 -58 -1 -55 -22 3 -21 8 -23
63 -21 124 3 150 8 153 27 2 10 -2 22 -10 27 -18 12 -59 11 -78 -1z"/>
</g>
</svg>
